<?xml version="1.0" standalone="no"?>
<!DOCTYPE svg PUBLIC "-//W3C//DTD SVG 20010904//EN"
 "http://www.w3.org/TR/2001/REC-SVG-20010904/DTD/svg10.dtd">
<svg version="1.0" xmlns="http://www.w3.org/2000/svg"
 width="587.000000pt" height="587.000000pt" viewBox="0 0 587.000000 587.000000"
 preserveAspectRatio="xMidYMid meet">

<g transform="translate(0.000000,587.000000) scale(0.100000,-0.100000)"
fill="#000000" stroke="none">
<path d="M2750 5864 c-633 -56 -1149 -253 -1630 -624 -122 -94 -396 -368 -490
-490 -337 -437 -542 -936 -611 -1485 -17 -129 -17 -531 0 -660 43 -348 144
-684 296 -986 146 -291 307 -513 549 -754 174 -174 292 -271 471 -387 980
-640 2247 -634 3225 15 308 204 612 509 817 817 278 419 439 885 483 1395 51
604 -106 1251 -431 1773 -231 372 -578 720 -948 950 -348 216 -757 361 -1177
417 -115 15 -461 27 -554 19z m540 -368 c577 -92 1024 -318 1431 -725 427
-428 673 -924 750 -1511 23 -180 25 -482 4 -660 -74 -625 -357 -1181 -812
-1595 -126 -116 -329 -269 -343 -260 -6 3 -9 3 -8 -2 2 -4 -1 -9 -6 -10 -5 -1
-12 -6 -15 -11 -3 -5 -44 -33 -90 -61 -58 -35 -91 -49 -105 -45 -14 3 -17 2
-9 -3 16 -12 -160 -95 -182 -87 -8 4 -13 9 -11 13 2 3 -10 6 -27 7 l-32 1 35
-15 35 -15 -35 -14 c-19 -9 -42 -17 -50 -18 -8 -2 -32 -11 -53 -19 -30 -13
-42 -14 -60 -5 -19 11 -20 10 -9 -3 11 -14 2 -18 -69 -38 -44 -12 -83 -19 -87
-16 -3 3 10 9 29 13 l34 8 -40 7 c-28 5 -20 5 24 2 76 -5 76 2 0 15 l-54 10
58 -5 c38 -3 56 -1 52 6 -3 5 -1 10 4 10 6 0 11 -7 11 -15 0 -8 4 -15 8 -15 5
0 9 7 9 15 0 16 -24 28 -38 19 -5 -3 -37 -7 -71 -8 -52 -2 -61 0 -66 16 -2 10
-14 19 -28 19 -13 1 -30 2 -36 3 -7 1 -16 5 -20 11 -4 5 -23 8 -42 7 -27 -2
-36 1 -36 13 0 8 6 15 13 15 8 0 7 3 -3 9 -8 6 -18 8 -22 5 -4 -3 -70 -12
-145 -21 -167 -18 -384 -12 -565 18 -67 11 -128 17 -136 14 -8 -3 -22 1 -31 8
-9 8 -29 17 -46 21 -43 10 -196 55 -224 67 -16 7 -28 6 -39 -3 -11 -9 -14 -9
-9 -1 5 8 -4 18 -24 29 -26 13 -33 14 -41 2 -8 -10 -9 -9 -4 5 3 9 2 17 -2 17
-4 1 -31 3 -59 6 -35 4 -53 2 -53 -5 0 -6 -8 -11 -17 -11 -15 0 -14 2 3 15 23
17 12 20 -19 4 -21 -11 -21 -11 1 11 18 16 27 19 35 11 6 -6 20 -11 31 -11 14
0 8 6 -19 20 -44 23 -48 24 -41 11 3 -5 0 -11 -8 -14 -9 -4 -13 2 -12 16 1 15
-4 21 -16 19 -9 -1 -19 2 -23 8 -3 5 -11 10 -16 10 -6 0 -7 -5 -4 -10 10 -17
-5 -11 -27 10 -14 13 -17 20 -8 20 7 0 10 3 7 6 -4 4 -14 1 -22 -6 -15 -12
-14 -15 7 -26 17 -10 19 -13 6 -14 -9 0 -20 5 -23 10 -3 6 -16 10 -28 9 -21 0
-21 -1 -2 -9 17 -7 17 -9 3 -9 -11 -1 -18 -9 -18 -22 0 -15 -4 -19 -16 -15
-25 10 -58 -3 -69 -27 -11 -22 -10 -22 49 -22 39 0 61 -4 63 -12 3 -7 -2 -13
-11 -13 -23 0 -30 -19 -9 -27 10 -3 21 -12 26 -19 4 -7 14 -11 22 -8 8 4 15 1
15 -5 0 -8 5 -9 19 -1 11 5 26 10 33 9 7 0 4 -4 -7 -9 l-20 -9 20 -1 c19 -1
19 -2 1 -9 -15 -6 -11 -9 22 -19 23 -7 44 -17 47 -22 11 -18 77 -41 99 -35 14
4 17 3 8 -3 -9 -6 8 -16 55 -34 99 -38 131 -47 137 -41 3 4 6 1 6 -5 0 -15 5
-16 -71 9 -97 32 -222 84 -343 145 -166 84 -196 103 -190 122 5 14 4 14 -4 3
-9 -12 -22 -7 -78 30 -127 82 -291 215 -280 226 3 4 15 -2 26 -12 11 -10 22
-16 25 -13 9 8 -45 39 -56 33 -11 -8 -84 53 -84 71 0 17 -26 45 -36 39 -4 -3
-41 29 -81 71 -73 76 -102 117 -57 79 l24 -20 -19 22 c-10 13 -22 20 -26 18
-13 -8 -112 123 -104 136 4 7 3 9 -4 5 -21 -13 -177 243 -259 428 -103 228
-166 444 -205 691 -28 185 -30 527 -4 715 49 352 129 612 272 890 127 243 255
419 453 617 300 301 626 506 1021 641 179 61 335 95 590 126 74 9 459 -4 550
-18z m-2129 -4423 c13 -16 12 -17 -3 -4 -17 13 -22 21 -14 21 2 0 10 -8 17
-17z m659 -423 c0 -5 -5 -10 -11 -10 -5 0 -7 5 -4 10 3 6 8 10 11 10 2 0 4 -4
4 -10z m1283 -137 c-7 -2 -19 -2 -25 0 -7 3 -2 5 12 5 14 0 19 -2 13 -5z m417
-87 c0 -3 -4 -8 -10 -11 -5 -3 -10 -1 -10 4 0 6 5 11 10 11 6 0 10 -2 10 -4z
m-1223 -12 c-3 -3 -12 -4 -19 -1 -8 3 -5 6 6 6 11 1 17 -2 13 -5z m68 -14 c13
-5 14 -9 5 -9 -8 0 -24 4 -35 9 -13 5 -14 9 -5 9 8 0 24 -4 35 -9z m1121 -17
c-36 -11 -51 -12 -60 -3 -8 8 -7 10 4 6 8 -3 29 -2 45 3 17 5 37 9 45 9 8 0
-7 -7 -34 -15z m-1059 1 c-3 -3 -12 -4 -19 -1 -8 3 -5 6 6 6 11 1 17 -2 13 -5z
m968 -14 c3 -5 -1 -10 -9 -10 -9 0 -16 5 -16 10 0 6 4 10 9 10 6 0 13 -4 16
-10z m-812 -17 c-7 -2 -21 -2 -30 0 -10 3 -4 5 12 5 17 0 24 -2 18 -5z m750 0
c-7 -2 -19 -2 -25 0 -7 3 -2 5 12 5 14 0 19 -2 13 -5z m-680 -10 c-7 -2 -19
-2 -25 0 -7 3 -2 5 12 5 14 0 19 -2 13 -5z m610 0 c-13 -2 -33 -2 -45 0 -13 2
-3 4 22 4 25 0 35 -2 23 -4z m-500 -10 c-13 -2 -33 -2 -45 0 -13 2 -3 4 22 4
25 0 35 -2 23 -4z m380 0 c-7 -2 -21 -2 -30 0 -10 3 -4 5 12 5 17 0 24 -2 18
-5z m-206 -9 c-3 -3 -12 -4 -19 -1 -8 3 -5 6 6 6 11 1 17 -2 13 -5z"/>
<path d="M2810 5280 c-481 -32 -941 -219 -1332 -541 -232 -191 -445 -463 -586
-751 -120 -245 -192 -474 -234 -743 -28 -189 -31 -518 -4 -680 62 -384 215
-765 413 -1033 29 -40 51 -78 47 -84 -4 -6 -3 -8 3 -5 6 4 47 -36 92 -88 142
-165 372 -358 554 -466 62 -38 84 -55 75 -62 -9 -6 -8 -7 4 -3 10 3 71 -20
140 -53 223 -106 457 -175 698 -207 156 -20 479 -15 615 10 511 93 920 310
1292 685 274 275 511 709 602 1101 51 221 73 534 52 756 -60 648 -321 1168
-797 1589 -462 409 -1044 614 -1634 575z m448 -599 c300 -64 601 -222 831
-436 114 -107 285 -341 276 -379 -3 -12 -2 -15 1 -8 17 37 143 -264 182 -433
46 -196 64 -466 42 -615 -6 -40 -8 -15 -6 90 2 80 1 125 -1 100 -6 -62 -18
-69 -19 -12 -1 26 -4 81 -6 122 -4 45 -3 53 1 18 9 -84 18 -79 17 11 -1 44 -4
72 -8 63 -5 -12 -7 -8 -8 13 -2 51 -29 -61 -30 -124 0 -74 -6 -61 -13 29 -4
49 -3 70 3 60 11 -17 13 -9 4 14 -3 9 -11 16 -16 16 -6 0 -7 -26 -4 -67 4 -46
3 -61 -3 -48 -7 15 -10 0 -10 -55 -1 -107 -19 -292 -37 -385 -19 -98 -81 -293
-101 -320 l-15 -20 7 20 c93 242 125 415 125 676 0 266 -49 479 -165 714 -158
320 -392 558 -697 708 -319 157 -649 194 -993 112 -271 -64 -521 -208 -730
-419 -123 -125 -205 -239 -289 -404 -132 -262 -180 -459 -180 -752 0 -184 12
-278 55 -423 147 -492 548 -913 1019 -1065 152 -49 265 -65 460 -66 200 0 296
14 466 69 89 29 266 111 335 156 49 31 65 36 53 17 -4 -7 -3 -8 5 -4 6 4 9 11
7 15 -3 4 32 37 77 72 84 66 209 199 285 302 24 31 70 106 102 164 33 59 60
104 60 100 0 -13 -89 -183 -119 -226 -10 -14 -16 -39 -15 -55 3 -25 2 -27 -10
-11 -12 16 -15 15 -36 -16 -14 -19 -28 -36 -32 -37 -5 -2 -5 -9 -1 -15 3 -7 3
-9 -2 -5 -4 4 -17 -5 -29 -20 -11 -15 -46 -53 -76 -86 -30 -32 -54 -62 -53
-67 2 -5 -4 -6 -12 -3 -8 4 -15 1 -15 -5 0 -7 -16 -21 -35 -32 -30 -18 -34
-24 -23 -38 10 -13 10 -14 -2 -4 -11 10 -17 8 -32 -9 -24 -28 -23 -44 6 -73
23 -22 24 -35 4 -35 -5 0 -6 5 -2 12 4 7 3 8 -5 4 -6 -4 -9 -11 -6 -15 13 -21
-241 -156 -375 -199 -360 -116 -769 -105 -1105 28 -115 46 -257 119 -250 130
3 5 0 8 -7 5 -19 -7 -179 110 -280 205 -294 276 -470 619 -524 1020 -34 260
-2 547 91 810 43 121 150 328 223 430 82 117 266 303 387 392 175 130 434 245
644 287 141 29 150 29 341 26 125 -3 201 -10 268 -24z m-252 -530 c46 -21 81
-64 90 -110 6 -30 9 -31 55 -31 59 0 98 -17 104 -44 5 -23 9 -116 7 -157 -1
-14 -13 -38 -27 -53 l-24 -26 -265 0 c-180 0 -273 4 -291 12 -37 17 -50 73
-37 162 6 38 18 76 27 85 9 9 40 18 72 21 54 5 58 7 66 37 17 57 100 120 162
122 11 0 38 -8 61 -18z m-428 -258 l-3 -58 -160 -5 -160 -5 -7 -450 c-4 -247
-7 -610 -5 -805 l2 -355 700 0 700 0 5 332 c3 182 8 335 13 339 4 4 8 -28 8
-72 1 -43 4 -122 8 -174 7 -94 7 -95 17 -50 8 35 10 7 6 -128 -4 -136 -2 -172
8 -172 10 0 11 19 7 83 -3 45 -2 105 2 132 6 38 9 17 10 -93 0 -79 4 -141 9
-139 4 3 9 98 10 211 2 114 7 228 12 254 5 29 7 -57 6 -223 -2 -148 -5 -282
-8 -296 -6 -34 -35 -71 -73 -97 -29 -20 -47 -20 -745 -24 -670 -3 -717 -2
-743 15 -15 9 -35 29 -44 44 -17 25 -18 84 -21 858 -2 819 -2 830 18 863 37
59 82 72 268 72 l163 0 -3 -57z m1091 39 c56 -28 75 -63 79 -146 3 -51 0 -77
-9 -87 -8 -8 -31 -33 -51 -57 l-38 -42 0 104 c0 82 -3 108 -16 120 -13 13 -42
16 -164 16 -82 0 -151 4 -154 9 -4 5 -9 30 -12 55 l-7 46 169 0 c141 0 175 -3
203 -18z m331 -195 c37 -18 70 -74 70 -117 0 -23 -10 -52 -26 -76 -30 -46
-931 -944 -988 -986 -43 -31 -83 -35 -124 -14 -15 8 -145 133 -289 279 -221
223 -263 270 -268 301 -9 45 6 84 46 122 26 24 39 29 83 29 l52 0 214 -218
215 -217 366 362 c201 200 399 398 439 441 40 43 82 85 94 92 25 18 82 19 116
2z m547 -699 c-3 -8 -6 -5 -6 6 -1 11 2 17 5 13 3 -3 4 -12 1 -19z m30 -330
c-3 -7 -5 -2 -5 12 0 14 2 19 5 13 2 -7 2 -19 0 -25z m-337 -792 c0 -2 -8 -10
-17 -17 -16 -13 -17 -12 -4 4 13 16 21 21 21 13z m191 -108 c114 -39 172 -148
130 -243 -20 -46 -109 -165 -123 -165 -4 0 -47 34 -95 76 -48 41 -114 94 -145
117 -32 23 -58 45 -58 49 0 12 104 121 144 150 43 31 89 36 147 16z m-2688
-147 c42 -47 77 -88 77 -91 0 -4 -12 -12 -26 -19 -24 -11 -29 -8 -64 31 l-38
43 -78 -64 c-44 -36 -102 -84 -130 -108 -49 -41 -52 -42 -68 -25 -9 10 -16 25
-16 33 0 8 37 43 83 79 98 78 157 130 157 139 0 4 -16 26 -36 49 l-36 42 24
20 23 20 25 -32 c14 -18 60 -70 103 -117z m2177 -45 c0 -3 -4 -8 -10 -11 -5
-3 -10 -1 -10 4 0 6 5 11 10 11 6 0 10 -2 10 -4z m218 -102 c45 -31 66 -109
42 -155 -9 -16 -7 -19 10 -19 11 0 50 -13 86 -30 56 -25 65 -32 54 -45 -23
-28 -49 -27 -119 5 -66 31 -70 31 -100 16 -17 -9 -31 -21 -31 -25 0 -5 20 -33
45 -62 42 -49 44 -54 28 -71 -9 -10 -22 -18 -29 -18 -11 0 -134 144 -227 266
-22 29 -21 31 45 82 96 74 149 89 196 56z m-2159 -93 c6 -10 -3 -56 -25 -131
-19 -63 -42 -142 -51 -175 -9 -33 -19 -64 -23 -68 -4 -4 -18 2 -32 13 -24 18
-25 23 -16 57 9 33 8 39 -11 53 -12 8 -47 35 -78 59 l-56 45 -40 -23 c-36 -21
-41 -22 -55 -7 -15 15 -14 18 7 34 13 9 92 56 175 103 143 83 151 86 173 72
13 -9 28 -23 32 -32z m1873 -258 l138 -138 -29 -16 c-28 -16 -30 -16 -66 13
l-36 31 -73 -34 -72 -34 4 -51 c4 -49 3 -52 -23 -58 -15 -4 -30 -5 -32 -2 -5
5 -16 117 -29 301 l-7 90 34 17 c19 9 39 17 44 17 6 1 72 -61 147 -136z
m-1599 113 c42 -17 89 -72 85 -100 -4 -29 -44 -34 -53 -6 -15 46 -95 66 -118
28 -9 -13 1 -31 46 -90 69 -90 72 -115 22 -165 -34 -34 -38 -35 -91 -31 -61 5
-96 26 -132 79 -28 40 -26 73 5 77 17 3 25 -5 37 -32 26 -63 125 -88 141 -36
5 15 -2 32 -22 56 -80 100 -92 128 -74 172 23 55 89 76 154 48z m242 -96 c2
-4 -1 -37 -6 -74 -6 -37 -9 -70 -6 -72 2 -2 39 23 83 56 43 33 82 60 88 60 5
0 24 -5 41 -11 l32 -12 -81 -55 c-45 -30 -85 -58 -90 -63 -5 -5 17 -59 54
-130 58 -113 61 -122 39 -116 -13 4 -29 7 -36 7 -7 0 -36 45 -65 100 -35 65
-59 100 -70 100 -16 0 -29 -34 -53 -132 -6 -24 -10 -26 -38 -21 -18 3 -33 7
-34 8 -1 0 18 85 43 186 45 181 47 186 70 181 13 -2 26 -8 29 -12z m967 -26
c56 -39 92 -118 86 -189 -14 -166 -212 -238 -333 -122 -65 63 -82 145 -46 223
50 110 197 154 293 88z m-421 -62 c16 -18 29 -41 29 -53 0 -27 -28 -79 -43
-80 -6 0 -3 -5 8 -10 27 -14 54 -52 61 -86 4 -20 -1 -36 -17 -57 -34 -43 -76
-56 -185 -56 l-97 0 6 137 c4 75 7 161 7 191 l0 54 101 -4 c99 -3 101 -3 130
-36z"/>
<path d="M4541 3264 c0 -11 3 -14 6 -6 3 7 2 16 -1 19 -3 4 -6 -2 -5 -13z"/>
<path d="M4478 3245 c2 -14 6 -25 8 -25 2 0 4 11 4 25 0 14 -4 25 -9 25 -4 0
-6 -11 -3 -25z"/>
<path d="M1983 1693 c0 -8 6 -9 19 -2 10 5 18 11 18 12 0 2 -8 3 -18 3 -10 0
-19 -6 -19 -13z"/>
<path d="M2033 1633 c9 -9 58 -13 53 -5 -3 5 -17 10 -31 10 -14 0 -24 -2 -22
-5z"/>
<path d="M2120 1632 c0 -7 4 -12 9 -12 5 0 7 -9 4 -20 -6 -23 -14 -25 -31 -8
-9 9 -12 9 -12 -1 0 -7 -6 -11 -14 -8 -9 4 -13 0 -12 -11 2 -9 9 -17 17 -17 8
0 13 6 11 13 -2 9 4 12 17 7 13 -4 23 0 29 11 6 11 17 15 31 11 11 -3 19 -1
15 4 -3 5 -10 9 -16 9 -6 0 -20 7 -30 17 -11 9 -18 11 -18 5z"/>
<path d="M3790 1600 c-9 -6 -10 -10 -3 -10 6 0 15 5 18 10 8 12 4 12 -15 0z"/>
<path d="M2223 1558 c-2 -16 0 -19 6 -9 7 10 16 9 47 -8 38 -20 38 -20 11 -21
-18 0 -26 -4 -21 -11 4 -8 -1 -9 -17 -4 -17 4 -20 3 -10 -3 11 -8 11 -10 0
-15 -8 -4 0 -4 16 0 27 5 28 4 12 -9 -18 -13 -17 -15 8 -26 15 -7 24 -8 20 -2
-3 5 1 10 10 10 9 0 14 -4 10 -9 -3 -6 3 -14 13 -20 21 -11 65 -3 56 10 -3 5
2 12 11 15 13 6 14 8 3 15 -11 8 -11 10 0 18 11 6 10 10 -3 15 -24 9 -32 7
-16 -3 8 -5 9 -11 3 -15 -6 -3 -13 2 -17 13 -3 11 -32 31 -68 47 -34 15 -64
30 -67 31 -3 2 -6 -7 -7 -19z"/>
<path d="M2230 1530 c-13 -8 -13 -10 2 -10 9 0 20 5 23 10 8 13 -5 13 -25 0z"/>
<path d="M2428 1453 c7 -3 16 -2 19 1 4 3 -2 6 -13 5 -11 0 -14 -3 -6 -6z"/>
<path d="M2885 4065 c-34 -33 -33 -78 1 -110 55 -51 134 -16 134 59 0 37 -7
49 -37 65 -35 18 -72 13 -98 -14z"/>
<path d="M3753 2350 c0 -25 2 -35 4 -22 2 12 2 32 0 45 -2 12 -4 2 -4 -23z"/>
<path d="M3730 2204 c0 -8 5 -12 10 -9 6 4 8 11 5 16 -9 14 -15 11 -15 -7z"/>
<path d="M3695 2180 c4 -6 11 -8 16 -5 14 9 11 15 -7 15 -8 0 -12 -5 -9 -10z"/>
<path d="M4304 1741 c-34 -21 -74 -67 -74 -86 0 -7 34 -39 76 -71 43 -33 88
-68 102 -78 31 -25 46 -16 85 52 33 60 32 83 -10 133 -28 33 -94 68 -128 69
-11 0 -34 -9 -51 -19z"/>
<path d="M4034 1454 c-16 -7 -40 -22 -54 -32 l-24 -20 39 -44 c21 -23 42 -44
45 -46 12 -5 90 70 90 87 0 23 -26 58 -48 63 -11 3 -32 0 -48 -8z"/>
<path d="M1827 1348 l-78 -47 56 -42 c30 -23 58 -39 61 -37 9 9 45 148 42 161
-2 8 -31 -5 -81 -35z"/>
<path d="M3691 1220 c-1 -28 18 -162 23 -167 4 -4 105 41 106 47 0 3 -29 37
-65 75 -57 62 -64 67 -64 45z"/>
<path d="M3283 1110 c-66 -40 -83 -130 -38 -206 69 -117 235 -61 235 79 0 119
-103 185 -197 127z"/>
<path d="M2870 1025 c0 -44 0 -45 34 -45 50 0 96 19 96 40 0 43 -10 50 -71 50
l-59 0 0 -45z"/>
<path d="M2870 864 l0 -56 60 4 c72 5 107 31 96 71 -7 29 -30 37 -103 37 l-53
0 0 -56z"/>
<path d="M1200 1326 c0 -2 8 -10 18 -17 15 -13 16 -12 3 4 -13 16 -21 21 -21
13z"/>
<path d="M1265 1200 c-2 -3 5 -6 15 -7 11 -1 22 2 24 5 3 4 -4 8 -15 8 -11 0
-22 -3 -24 -6z"/>
<path d="M1070 1176 c0 -2 8 -10 18 -17 15 -13 16 -12 3 4 -13 16 -21 21 -21
13z"/>
<path d="M1353 1131 c0 -11 5 -18 9 -15 4 3 5 11 1 19 -7 21 -12 19 -10 -4z"/>
<path d="M1380 1141 c0 -6 4 -13 10 -16 6 -3 7 1 4 9 -7 18 -14 21 -14 7z"/>
<path d="M1424 1106 c1 -8 5 -18 8 -22 4 -3 5 1 4 10 -1 8 -5 18 -8 22 -4 3
-5 -1 -4 -10z"/>
<path d="M1455 1071 c-6 -11 13 -26 22 -17 3 3 13 0 22 -7 14 -10 14 -10 3 5
-8 10 -20 14 -29 11 -11 -4 -14 -2 -9 5 4 7 5 12 2 12 -3 0 -7 -4 -11 -9z"/>
<path d="M1547 965 c3 -8 9 -12 14 -9 12 7 11 11 -5 17 -10 4 -13 1 -9 -8z"/>
<path d="M1507 959 c7 -7 15 -10 18 -7 3 3 -2 9 -12 12 -14 6 -15 5 -6 -5z"/>
<path d="M1348 936 c3 -5 -3 -6 -14 -2 -14 5 -16 4 -8 -4 9 -9 19 -8 40 3 l29
15 -27 -1 c-14 -1 -24 -6 -20 -11z"/>
<path d="M1653 913 c9 -2 15 -8 12 -13 -3 -5 5 -14 17 -20 20 -10 21 -10 6 3
-11 9 -14 17 -8 23 6 6 0 10 -18 11 -15 0 -19 -1 -9 -4z"/>
<path d="M1638 873 c7 -3 16 -2 19 1 4 3 -2 6 -13 5 -11 0 -14 -3 -6 -6z"/>
<path d="M1444 856 c11 -9 24 -16 30 -16 12 0 7 5 -24 19 -24 11 -24 11 -6 -3z"/>
<path d="M1470 866 c0 -2 7 -7 16 -10 8 -3 12 -2 9 4 -6 10 -25 14 -25 6z"/>
<path d="M1750 858 c-12 -8 -12 -9 3 -4 9 3 17 3 17 -1 0 -3 -8 -12 -17 -19
-16 -12 -16 -13 -2 -14 9 0 22 6 28 14 16 19 -8 39 -29 24z"/>
<path d="M1660 816 c0 -2 7 -7 16 -10 8 -3 12 -2 9 4 -6 10 -25 14 -25 6z"/>
<path d="M1630 783 c8 -3 19 -11 23 -17 6 -7 7 -6 4 4 -2 8 -12 16 -23 17 -13
2 -15 1 -4 -4z"/>
<path d="M1578 773 c7 -3 16 -2 19 1 4 3 -2 6 -13 5 -11 0 -14 -3 -6 -6z"/>
<path d="M1620 755 c7 -8 17 -15 22 -15 6 0 5 7 -2 15 -7 8 -17 15 -22 15 -6
0 -5 -7 2 -15z"/>
<path d="M1570 754 c0 -2 9 -8 20 -14 11 -6 20 -7 20 -2 0 6 -9 12 -20 15 -11
3 -20 3 -20 1z"/>
<path d="M1684 689 c-9 -16 27 -22 41 -8 12 12 11 14 -10 15 -14 1 -28 -2 -31
-7z"/>
<path d="M4030 600 c-18 -12 -2 -12 25 0 13 6 15 9 5 9 -8 0 -22 -4 -30 -9z"/>
<path d="M3548 593 c6 -2 18 -2 25 0 6 3 1 5 -13 5 -14 0 -19 -2 -12 -5z"/>
<path d="M3385 570 c-13 -6 -15 -9 -5 -9 8 0 22 4 30 9 18 12 2 12 -25 0z"/>
<path d="M3488 573 c7 -3 16 -2 19 1 4 3 -2 6 -13 5 -11 0 -14 -3 -6 -6z"/>
<path d="M3448 563 c7 -3 16 -2 19 1 4 3 -2 6 -13 5 -11 0 -14 -3 -6 -6z"/>
<path d="M3918 543 c7 -3 16 -2 19 1 4 3 -2 6 -13 5 -11 0 -14 -3 -6 -6z"/>
<path d="M3753 525 c-7 -8 -13 -17 -13 -21 0 -3 6 -2 13 4 6 6 28 15 47 20
l35 10 -35 1 c-19 0 -41 -6 -47 -14z"/>
<path d="M3780 502 c0 -8 58 -8 66 0 2 3 -12 5 -31 6 -19 1 -35 -2 -35 -6z"/>
<path d="M3750 480 c0 -5 5 -10 10 -10 6 0 10 5 10 10 0 6 -4 10 -10 10 -5 0
-10 -4 -10 -10z"/>
</g>
</svg>
