<svg width="64" height="64" viewBox="0 0 64 64" xmlns="http://www.w3.org/2000/svg">
  <defs>
    <linearGradient id="bgGradient" x1="0%" y1="0%" x2="100%" y2="100%">
      <stop offset="0%" style="stop-color:#4F46E5;stop-opacity:1" />
      <stop offset="100%" style="stop-color:#7C3AED;stop-opacity:1" />
    </linearGradient>
  </defs>
  
  <!-- Background rounded rectangle -->
  <rect x="4" y="4" width="56" height="56" rx="12" ry="12" fill="url(#bgGradient)" stroke="#1E1B4B" stroke-width="1"/>
  
  <!-- Clipboard background -->
  <rect x="12" y="10" width="40" height="48" rx="4" ry="4" fill="#FFFFFF" opacity="0.95"/>
  
  <!-- Clipboard clip -->
  <rect x="24" y="6" width="16" height="8" rx="2" ry="2" fill="#6B7280" stroke="#374151" stroke-width="1"/>
  
  <!-- Task items -->
  <!-- Completed task 1 -->
  <circle cx="18" cy="22" r="3" fill="#10B981" stroke="#059669" stroke-width="1"/>
  <path d="M16 22 L17.5 23.5 L20 20.5" stroke="#FFFFFF" stroke-width="1.5" fill="none" stroke-linecap="round" stroke-linejoin="round"/>
  <rect x="25" y="20" width="20" height="2" rx="1" fill="#6B7280"/>
  <rect x="25" y="23" width="14" height="1.5" rx="0.75" fill="#9CA3AF"/>
  
  <!-- Completed task 2 -->
  <circle cx="18" cy="32" r="3" fill="#10B981" stroke="#059669" stroke-width="1"/>
  <path d="M16 32 L17.5 33.5 L20 30.5" stroke="#FFFFFF" stroke-width="1.5" fill="none" stroke-linecap="round" stroke-linejoin="round"/>
  <rect x="25" y="30" width="18" height="2" rx="1" fill="#6B7280"/>
  <rect x="25" y="33" width="12" height="1.5" rx="0.75" fill="#9CA3AF"/>
  
  <!-- Pending task 3 -->
  <circle cx="18" cy="42" r="3" fill="#FFFFFF" stroke="#D1D5DB" stroke-width="2"/>
  <rect x="25" y="40" width="22" height="2" rx="1" fill="#374151"/>
  <rect x="25" y="43" width="16" height="1.5" rx="0.75" fill="#6B7280"/>
  
  <!-- Pending task 4 -->
  <circle cx="18" cy="50" r="3" fill="#FFFFFF" stroke="#D1D5DB" stroke-width="2"/>
  <rect x="25" y="48" width="19" height="2" rx="1" fill="#374151"/>
  <rect x="25" y="51" width="13" height="1.5" rx="0.75" fill="#6B7280"/>
</svg>